<svg xmlns="http://www.w3.org/2000/svg" xmlns:xlink="http://www.w3.org/1999/xlink" width="55" height="55" viewBox="0 0 55 55"><defs><style>.a,.b{fill:#fff;}.a{stroke:#707070;}.c{clip-path:url(#c);}.d{fill:#59c36a;}.e{fill:#00a66c;}.f{fill:#ffda2d;}.g{fill:#4086f4;}.h{fill:#4175df;}.i{fill:#ff641a;}.j{fill:#f03800;}.k{filter:url(#a);}</style><filter id="a" x="0" y="0" width="55" height="55" filterUnits="userSpaceOnUse"><feOffset dy="4" input="SourceAlpha"/><feGaussianBlur stdDeviation="3" result="b"/><feFlood flood-opacity="0.078"/><feComposite operator="in" in2="b"/><feComposite in="SourceGraphic"/></filter><clipPath id="c"><rect class="a" width="27" height="27"/></clipPath></defs><g transform="translate(-105 -606)"><g class="k" transform="matrix(1, 0, 0, 1, 105, 606)"><circle class="b" cx="18.5" cy="18.5" r="18.5" transform="translate(9 5)"/></g><g class="c" transform="translate(119 616.5)"><g transform="translate(0 0)"><path class="d" d="M21.972,22.037a13.479,13.479,0,0,1-8.685,3.233A13.506,13.506,0,0,1,1.706,18.6l.877-4.041,3.885-.721a7.169,7.169,0,0,0,6.819,5.047,7.017,7.017,0,0,0,4.177-1.361l3.734.57Z" transform="translate(0.213 1.73)"/><path class="e" d="M20.685,21.628l-.775-3.939-3.734-.57A7.017,7.017,0,0,1,12,18.479V24.86A13.479,13.479,0,0,0,20.685,21.628Z" transform="translate(1.5 2.14)"/><g transform="translate(0 6.666)"><path class="f" d="M6.381,12.759a7.373,7.373,0,0,0,.3,2.072L1.92,19.594A13.367,13.367,0,0,1,0,12.759,13.367,13.367,0,0,1,1.92,5.925l3.822.658.94,4.1a7.372,7.372,0,0,0-.3,2.072Z" transform="translate(0 -5.925)"/></g><path class="g" d="M25.588,12.352a13.479,13.479,0,0,1-4.815,10.267L16.264,18.11a7,7,0,0,0,2.2-2.595H12.088a.783.783,0,0,1-.791-.791V9.979a.783.783,0,0,1,.791-.791H24.575a.782.782,0,0,1,.775.649,13.414,13.414,0,0,1,.237,2.515Z" transform="translate(1.412 1.148)"/><path class="h" d="M18.376,15.516a7,7,0,0,1-2.2,2.595l4.509,4.509A13.371,13.371,0,0,0,25.263,9.836a.782.782,0,0,0-.775-.649H12v6.328Z" transform="translate(1.5 1.148)"/><path class="i" d="M22.194,3.77a.8.8,0,0,1-.221.585l-3.386,3.37a.775.775,0,0,1-1.028.079,7.076,7.076,0,0,0-4.272-1.424,7.169,7.169,0,0,0-6.819,5.047L1.706,6.666A13.506,13.506,0,0,1,13.287,0a13.46,13.46,0,0,1,8.622,3.185.832.832,0,0,1,.285.585Z" transform="translate(0.213 0)"/><path class="j" d="M16.271,7.8A.775.775,0,0,0,17.3,7.726l3.386-3.37a.8.8,0,0,0,.221-.585.832.832,0,0,0-.285-.585A13.459,13.459,0,0,0,12,0V6.381A7.076,7.076,0,0,1,16.271,7.8Z" transform="translate(1.5 0)"/></g></g></g></svg>