<svg xmlns="http://www.w3.org/2000/svg" xmlns:xlink="http://www.w3.org/1999/xlink" width="875.322" height="564.323" viewBox="0 0 875.322 564.323"><defs><style>.a{fill:url(#a);}.b{fill:#bdd0fb;}.c{fill:#91b3fa;}.d{fill:#3e64e2;}.ax,.e,.i{fill:#fff;}.f{fill:#7d97f4;}.g{opacity:0.6;}.h{fill:url(#e);}.i{opacity:0.49;}.j{fill:url(#f);}.k{fill:url(#g);}.l{fill:url(#i);}.m{fill:url(#j);}.n{fill:url(#k);}.o{fill:url(#l);}.p{fill:url(#m);}.q{fill:url(#q);}.r{fill:url(#r);}.s{fill:url(#s);}.t{fill:url(#u);}.u{fill:url(#v);}.v{fill:url(#w);}.w{fill:url(#x);}.x{fill:url(#y);}.y{fill:url(#z);}.z{fill:url(#aa);}.aa{fill:url(#ab);}.ab{fill:url(#ac);}.ac{fill:url(#ad);}.ad{fill:url(#ae);}.ae{fill:url(#af);}.af{fill:url(#ag);}.ag{fill:url(#ah);}.ah{fill:url(#ai);}.ai{fill:url(#aj);}.aj{fill:url(#ak);}.ak{fill:url(#al);}.al{fill:url(#am);}.am{fill:url(#an);}.an{fill:url(#ao);}.ao{fill:url(#ap);}.ap{fill:url(#aq);}.aq{fill:url(#ar);}.ar{fill:url(#as);}.as{fill:url(#at);}.at{fill:url(#au);}.au{fill:url(#av);}.av{fill:url(#aw);}.aw{fill:url(#ax);}.ax{opacity:0.68;}.ay{fill:url(#ay);}.az{fill:url(#az);}.ba{fill:url(#ba);}.bb{fill:url(#bb);}.bc{fill:url(#bc);}.bd{fill:url(#bd);}.be{fill:url(#be);}.bf{fill:url(#bf);}.bg{fill:url(#bg);}.bh{fill:url(#bh);}.bi{fill:url(#bi);}.bj{fill:url(#bj);}.bk{fill:url(#bk);}.bl{opacity:0.37;}.bm{fill:url(#bl);}.bn{fill:url(#bm);}.bo{fill:url(#bn);}.bp{fill:url(#bo);}.bq{fill:url(#bp);}</style><linearGradient id="a" y1="0.5" x2="1" y2="0.5" gradientUnits="objectBoundingBox"><stop offset="0" stop-color="#dae3fe"/><stop offset="1" stop-color="#e9effd"/></linearGradient><linearGradient id="e" x1="-11.059" y1="-1.768" x2="-16.09" y2="3.539" gradientUnits="objectBoundingBox"><stop offset="0" stop-color="#fe7062"/><stop offset="1" stop-color="#ff928e"/></linearGradient><linearGradient id="f" x1="1.039" y1="-0.042" x2="-1.519" y2="2.215" gradientUnits="objectBoundingBox"><stop offset="0" stop-color="#4042e2"/><stop offset="1" stop-color="#4f52ff"/></linearGradient><linearGradient id="g" x1="1.039" y1="-0.043" x2="-1.519" y2="2.215" gradientUnits="objectBoundingBox"><stop offset="0" stop-color="#ff928e"/><stop offset="1" stop-color="#feb3b1"/></linearGradient><linearGradient id="i" x1="1.039" y1="-0.042" x2="-1.519" y2="2.216" xlink:href="#g"/><linearGradient id="j" x1="1.039" y1="-0.041" x2="-1.519" y2="2.216" xlink:href="#g"/><linearGradient id="k" x1="1.058" y1="-3.98" x2="0.864" y2="-2.46" xlink:href="#f"/><linearGradient id="l" x1="0" y1="0.5" x2="1" y2="0.5" xlink:href="#a"/><linearGradient id="m" x1="0" y1="0.5" x2="1" y2="0.5" xlink:href="#a"/><linearGradient id="q" x1="0.558" y1="0.538" x2="0.882" y2="0.203" xlink:href="#g"/><linearGradient id="r" y1="0.5" x2="1" y2="0.5" gradientUnits="objectBoundingBox"><stop offset="0" stop-color="#09005d"/><stop offset="1" stop-color="#1a0f91"/></linearGradient><linearGradient id="s" x1="1.524" y1="-0.191" x2="1.282" y2="-0.001" xlink:href="#g"/><linearGradient id="u" x1="2.023" y1="9.302" x2="4.635" y2="8.319" xlink:href="#f"/><linearGradient id="v" x1="-78.909" y1="-6.05" x2="-78.592" y2="-5.303" gradientUnits="objectBoundingBox"><stop offset="0" stop-color="#e1473d"/><stop offset="1" stop-color="#e9605a"/></linearGradient><linearGradient id="w" x1="4.055" y1="15.375" x2="7.727" y2="14.782" xlink:href="#f"/><linearGradient id="x" x1="-45.637" y1="0.5" x2="-44.637" y2="0.5" xlink:href="#g"/><linearGradient id="y" x1="0.767" y1="0.288" x2="-0.132" y2="1.327" xlink:href="#g"/><linearGradient id="z" x1="-224.37" y1="-85.272" x2="-224.191" y2="-83.587" xlink:href="#g"/><linearGradient id="aa" x1="-142.933" y1="-66.069" x2="-142.424" y2="-63.835" xlink:href="#v"/><linearGradient id="ab" x1="-915.597" y1="-279.393" x2="-914.865" y2="-273.877" xlink:href="#g"/><linearGradient id="ac" x1="0.423" y1="-12.476" x2="0.457" y2="-6.791" xlink:href="#r"/><linearGradient id="ad" x1="37.609" y1="0.565" x2="42.684" y2="-0.107" xlink:href="#r"/><linearGradient id="ae" x1="0.531" y1="-1.012" x2="0.46" y2="1.545" xlink:href="#f"/><linearGradient id="af" x1="0.84" y1="-0.21" x2="-0.342" y2="2.258" xlink:href="#e"/><linearGradient id="ag" x1="0.609" y1="-1.574" x2="0.551" y2="-0.469" xlink:href="#g"/><linearGradient id="ah" x1="1.397" y1="-0.532" x2="0.69" y2="0.316" xlink:href="#e"/><linearGradient id="ai" x1="-3.131" y1="1.824" x2="13.907" y2="-4.389" xlink:href="#v"/><linearGradient id="aj" x1="-0.52" y1="11.82" x2="2.569" y2="-22.455" xlink:href="#v"/><linearGradient id="ak" x1="-0.534" y1="0.877" x2="16.504" y2="-5.336" xlink:href="#v"/><linearGradient id="al" x1="-4.423" y1="2.295" x2="12.616" y2="-3.918" xlink:href="#v"/><linearGradient id="am" x1="-1.825" y1="1.348" x2="15.213" y2="-4.866" xlink:href="#v"/><linearGradient id="an" x1="-0.049" y1="6.595" x2="3.04" y2="-27.68" xlink:href="#v"/><linearGradient id="ao" x1="0.422" y1="1.37" x2="3.51" y2="-32.905" xlink:href="#v"/><linearGradient id="ap" x1="-5.145" y1="2.559" x2="11.893" y2="-3.655" xlink:href="#v"/><linearGradient id="aq" x1="-0.885" y1="15.87" x2="2.204" y2="-18.405" xlink:href="#v"/><linearGradient id="ar" x1="-3.839" y1="2.082" x2="13.2" y2="-4.131" xlink:href="#v"/><linearGradient id="as" x1="-0.414" y1="10.645" x2="2.675" y2="-23.629" xlink:href="#v"/><linearGradient id="at" x1="0.057" y1="5.42" x2="3.145" y2="-28.854" xlink:href="#v"/><linearGradient id="au" x1="-1.2" y1="3.921" x2="19.115" y2="-36.946" xlink:href="#v"/><linearGradient id="av" x1="0.129" y1="1.544" x2="3.579" y2="-6.601" xlink:href="#e"/><linearGradient id="aw" x1="-0.449" y1="2.573" x2="3" y2="-5.572" xlink:href="#e"/><linearGradient id="ax" x1="1.33" y1="-0.47" x2="0.692" y2="0.394" xlink:href="#v"/><linearGradient id="ay" x1="-49.003" y1="0.5" x2="-48.003" y2="0.5" xlink:href="#f"/><linearGradient id="az" x1="-50.453" y1="0.5" x2="-49.453" y2="0.5" xlink:href="#r"/><linearGradient id="ba" x1="-175.862" y1="0.5" x2="-174.862" y2="0.5" xlink:href="#g"/><linearGradient id="bb" x1="-139.888" y1="0.5" x2="-138.888" y2="0.5" xlink:href="#f"/><linearGradient id="bc" x1="-94.975" y1="0.5" x2="-93.975" y2="0.5" xlink:href="#r"/><linearGradient id="bd" x1="-157.623" y1="0.5" x2="-156.623" y2="0.5" xlink:href="#g"/><linearGradient id="be" x1="0.475" y1="0.65" x2="0.98" y2="1.941" xlink:href="#f"/><linearGradient id="bf" x1="-17.205" y1="-0.847" x2="-17.724" y2="0.081" xlink:href="#f"/><linearGradient id="bg" x1="-100.684" y1="0.1" x2="-103.073" y2="1.142" xlink:href="#g"/><linearGradient id="bh" x1="-50.04" y1="-2.08" x2="-51.463" y2="-0.021" xlink:href="#f"/><linearGradient id="bi" x1="-61.101" y1="-2.358" x2="-63.007" y2="0.06" xlink:href="#f"/><linearGradient id="bj" x1="-47.552" y1="0.5" x2="-46.552" y2="0.5" xlink:href="#g"/><linearGradient id="bk" x1="-67.621" y1="-0.004" x2="-67.636" y2="1.888" xlink:href="#g"/><linearGradient id="bl" x1="-88.731" y1="25.006" x2="-90.251" y2="26.344" xlink:href="#g"/><linearGradient id="bm" x1="-63.589" y1="0.423" x2="-60.618" y2="0.704" xlink:href="#r"/><linearGradient id="bn" x1="-248.46" y1="72.89" x2="-245.17" y2="70.533" xlink:href="#g"/><linearGradient id="bo" x1="-69.863" y1="-1.222" x2="-71.557" y2="3.819" xlink:href="#g"/><linearGradient id="bp" x1="-129.589" y1="0.5" x2="-128.589" y2="0.5" xlink:href="#g"/></defs><g transform="translate(-147.662 -110.258)"><path class="a" d="M327.913,105.116c-67.9,56.114,22.865,128.142-24.155,159.585S62,357.469,258.107,479.127,459.6,681.4,599.593,604.366s129.939-90.874,245.143-38.8,235.617-28.945,194.677-125.1-67.007-94.958-20.258-156.365S992.8,52.763,831.875,184.087s-261.648,33.28-279.317-15.834S435.212,16.437,327.913,105.116Z" transform="translate(-24.599 40)"/><g transform="translate(233.159 362.674)"><path class="b" d="M115.79,773.268c34.573,2.184,235.25,23.108,249.441,214.947,0,0-135.659,20.234-252.249-210.708A2.931,2.931,0,0,1,115.79,773.268Z" transform="translate(-112.664 -773.262)"/><path class="a" d="M211.349,849.1c9.9,4.956,19.692,10.111,29.441,15.352s19.429,10.6,29.049,16.073q28.862,16.41,56.882,34.263c18.628,11.964,36.924,24.479,54.506,37.975q13.216,10.079,25.68,21.126a279.68,279.68,0,0,1,23.668,23.43,1.176,1.176,0,1,1-1.762,1.559l0,0,0,0a277.463,277.463,0,0,0-23.354-23.353Q393.137,964.473,380,954.359c-17.451-13.539-35.646-26.122-54.183-38.162s-37.47-23.483-56.637-34.511q-14.376-8.272-28.942-16.207c-9.711-5.285-19.473-10.49-29.329-15.486l0,0a.5.5,0,0,1,.448-.89Z" transform="translate(-181.646 -826.627)"/></g><g transform="translate(659.589 190.204)"><path class="c" d="M1796.938,194.455a3.419,3.419,0,0,0-4.389-3.991c-38.475,12.361-259.44,93.439-220.6,314.455C1571.946,504.918,1731.156,488.989,1796.938,194.455Z" transform="translate(-1563.44 -190.295)"/><path class="b" d="M1760.229,303.134c-9.722,8.468-19.277,17.143-28.751,25.9s-18.841,17.625-28.106,26.6-18.424,18.058-27.473,27.249-17.948,18.527-26.731,27.969c-17.528,18.915-34.514,38.348-50.389,58.651q-11.953,15.188-22.753,31.215a323.865,323.865,0,0,0-19.754,33.1l0,0a1.176,1.176,0,0,1-2.1-1.069l0,0a326.065,326.065,0,0,1,20.04-33.257q10.9-16.051,22.979-31.237c16.011-20.294,33.112-39.686,50.748-58.55q13.254-14.125,26.885-27.885,13.648-13.74,27.617-27.153t28.243-26.5c9.521-8.719,19.114-17.353,28.891-25.794a.5.5,0,0,1,.651.754Z" transform="translate(-1554.046 -269.133)"/></g><g transform="translate(632.406 358.954)"><path class="b" d="M1686.054,760.694c-28.681,1.715-195.857,19.673-223.888,205.591,0,0,110.085,21.208,225.841-201.446C1689.02,762.891,1687.928,760.581,1686.054,760.694Z" transform="translate(-1462.166 -760.69)"/><path class="a" d="M1677.492,834.043c-8.745,4.843-17.4,9.879-26,14.986s-17.137,10.328-25.611,15.644c-16.94,10.642-33.656,21.645-50,33.18q-12.273,8.623-24.208,17.706c-1.981,1.523-3.989,3.012-5.949,4.563l-5.9,4.629c-1.957,1.553-3.886,3.14-5.83,4.709-.967.79-1.947,1.566-2.9,2.367l-2.869,2.409c-3.852,3.181-7.592,6.491-11.356,9.772-3.69,3.362-7.408,6.694-10.98,10.178a283.946,283.946,0,0,0-20.528,21.722l0,.005a1.176,1.176,0,0,1-1.8-1.514l0-.005a286.118,286.118,0,0,1,20.82-21.787c3.615-3.485,7.37-6.813,11.1-10.17,3.8-3.275,7.574-6.578,11.458-9.749l2.893-2.4c.966-.8,1.953-1.572,2.928-2.358,1.959-1.563,3.9-3.145,5.875-4.691l5.939-4.608c1.974-1.544,3.995-3.025,5.99-4.541q12.016-9.031,24.359-17.606c16.433-11.463,33.232-22.385,50.251-32.942q12.768-7.912,25.724-15.515c8.64-5.065,17.319-10.052,26.113-14.858a.5.5,0,0,1,.481.873Z" transform="translate(-1477.039 -811.682)"/></g><g transform="translate(325.443 199.346)"><path class="d" d="M425.138,348.909a21.144,21.144,0,0,1,15.869-25.345l175.24-40.292a18.629,18.629,0,0,1,22.093,13.063l71.352,251.092a13.738,13.738,0,0,1-9.893,17.085l-200.008,49.83a13.04,13.04,0,0,1-15.86-9.731Z" transform="translate(-424.596 -264.571)"/><path class="e" d="M636.626,1275.129a14.333,14.333,0,0,1-13.924-11.065l-7.8-33.931a.588.588,0,0,1,1.147-.264l7.8,33.931a13.136,13.136,0,0,0,15.521,9.858l22.541-4.877a.588.588,0,1,1,.249,1.15l-22.541,4.876A14.149,14.149,0,0,1,636.626,1275.129Z" transform="translate(-558.589 -931.135)"/><path class="e" d="M604.3,1181.985a.588.588,0,0,1-.573-.456l-1.263-5.5a.588.588,0,0,1,1.146-.264l1.264,5.495a.589.589,0,0,1-.441.705A.6.6,0,0,1,604.3,1181.985Z" transform="translate(-549.83 -893.041)"/><g transform="translate(10.893 24.541)"><path class="f" d="M461.583,343.948A6.142,6.142,0,0,1,467,336.417c24.677-2.257,109.276-11.141,176.112-32.007a5.679,5.679,0,0,1,7.161,3.85l72.24,252.08a6.536,6.536,0,0,1-4.444,8.075c-28.226,8.273-144.568,41.915-187.614,47.177a5.178,5.178,0,0,1-5.664-3.956Z" transform="translate(-461.416 -304.148)"/><path class="b" d="M476.1,366.941a5.911,5.911,0,0,1,5.213-7.247c23.748-2.172,105.161-10.722,169.481-30.8a5.465,5.465,0,0,1,6.891,3.7L727.2,575.183a6.29,6.29,0,0,1-4.276,7.77c-27.163,7.961-139.124,40.337-180.549,45.4a4.983,4.983,0,0,1-5.45-3.807Z" transform="translate(-471.64 -321.394)"/><path class="a" d="M565.755,463.16a3.652,3.652,0,0,0-2.824,4.568l14.552,52.09a3.434,3.434,0,0,0,3.983,2.446c9.815-1.967,40.37-8.212,57.32-13.051a3.836,3.836,0,0,0,2.71-4.428c-1.943-9.949-7.835-38.853-12.848-50.35a4.329,4.329,0,0,0-4.794-2.511Z" transform="translate(-532.803 -408.149)"/><circle class="f" cx="11.614" cy="11.614" r="11.614" transform="translate(51.197 70.778) rotate(-45)"/><path class="f" d="M645.523,615.735a2.994,2.994,0,0,0,3.445,4.043l36.059-8.291a2.865,2.865,0,0,0,1.355-4.843c-4.165-4.088-12.192-9.656-23.217-6.786A25.793,25.793,0,0,0,645.523,615.735Z" transform="translate(-590.897 -511.817)"/><g class="g" transform="translate(109.405 27.246)"><path class="e" d="M898.093,399.8a1.146,1.146,0,0,0,.855-1.41l-.318-1.219a1.256,1.256,0,0,0-1.456-.9L831.9,410.056a.769.769,0,0,0-.525,1.244l1.488,2.349a1.8,1.8,0,0,0,1.787.735Z" transform="translate(-831.219 -396.243)"/></g><g class="g" transform="translate(111.662 37.061)"><path class="e" d="M839.533,443.233a.769.769,0,0,0-.525,1.244l1.488,2.349a1.8,1.8,0,0,0,1.787.735l63.438-14.586a1.145,1.145,0,0,0,.854-1.41l-.318-1.219a1.257,1.257,0,0,0-1.457-.9Z" transform="translate(-838.847 -429.42)"/></g><g class="g" transform="translate(113.952 47.019)"><path class="e" d="M847.272,476.893a.769.769,0,0,0-.525,1.244l1.488,2.349a1.8,1.8,0,0,0,1.786.735l63.438-14.586a1.146,1.146,0,0,0,.854-1.41L914,464.006a1.256,1.256,0,0,0-1.457-.9Z" transform="translate(-846.587 -463.08)"/></g><g class="g" transform="translate(46.268 93.671)"><path class="e" d="M769.546,624.282a1.1,1.1,0,0,0,.813-1.4l-.364-1.212a1.3,1.3,0,0,0-1.5-.877L618.361,654.071c-.635.141-.739.588-.23.993l3,2.392a2.786,2.786,0,0,0,2.079.472Z" transform="translate(-617.808 -620.766)"/></g><g class="g" transform="translate(48.525 103.486)"><path class="e" d="M625.989,687.248c-.635.141-.739.588-.23.993l3,2.391a2.787,2.787,0,0,0,2.079.472l146.331-33.646a1.1,1.1,0,0,0,.813-1.4l-.365-1.212a1.3,1.3,0,0,0-1.5-.877Z" transform="translate(-625.436 -653.943)"/></g><g transform="translate(57.675 130.119)"><path class="e" d="M663.331,841.082A3.441,3.441,0,0,1,660,838.855l-3.51-10.233a2.431,2.431,0,0,1,.149-1.912,2.91,2.91,0,0,1,1.753-1.431h0c1.037-.314,2.46-.772,4.025-1.275,3.411-1.1,7.279-2.339,9.59-2.9a3.679,3.679,0,0,1,4.169,1.691c1.211,2.27,2.2,6.846,3.2,11.735a3.268,3.268,0,0,1-2.653,3.7L664.2,840.987A4.049,4.049,0,0,1,663.331,841.082Zm-4.594-14.676a1.729,1.729,0,0,0-1.047.841,1.265,1.265,0,0,0-.084.994l3.509,10.233a2.37,2.37,0,0,0,2.831,1.364l12.524-2.753a2.093,2.093,0,0,0,1.753-2.321c-.976-4.8-1.945-9.285-3.081-11.415a2.539,2.539,0,0,0-2.853-1.1c-2.27.552-6.283,1.842-9.508,2.878-1.572.506-3,.965-4.044,1.281Z" transform="translate(-656.364 -798.199)"/><g class="g" transform="translate(28.244)"><path class="e" d="M752.558,770.474a.865.865,0,0,0-.6,1.31l1.982,3.771a1.6,1.6,0,0,0,1.7.77L870.5,748.648a1.171,1.171,0,0,0,.86-1.425l-.593-2.344a1.223,1.223,0,0,0-1.445-.885Z" transform="translate(-751.831 -743.965)"/></g><path class="h" d="M671.22,818.389h0a1.968,1.968,0,0,1,2.811.112l3.481,3.852a.632.632,0,0,0,1.089-.3l2.984-15.016a.7.7,0,0,1,1.373-.005,27.572,27.572,0,0,1-3.519,20.5s-3.994-.582-8.436-6.386A2.064,2.064,0,0,1,671.22,818.389Z" transform="translate(-666.372 -787.979)"/><path class="e" d="M684.146,931.612a3.441,3.441,0,0,1-3.328-2.226l-3.51-10.233a2.434,2.434,0,0,1,.15-1.912,2.913,2.913,0,0,1,1.753-1.431h0c1.037-.314,2.46-.771,4.024-1.274,3.412-1.1,7.279-2.34,9.591-2.9A3.677,3.677,0,0,1,697,913.326c1.21,2.268,2.2,6.845,3.2,11.734a3.269,3.269,0,0,1-2.653,3.7l-12.524,2.753A4.037,4.037,0,0,1,684.146,931.612Zm-4.594-14.676a1.73,1.73,0,0,0-1.047.841,1.269,1.269,0,0,0-.084.995L681.931,929a2.371,2.371,0,0,0,2.831,1.364l12.524-2.753a2.093,2.093,0,0,0,1.753-2.321c-.976-4.8-1.946-9.287-3.082-11.415a2.539,2.539,0,0,0-2.853-1.1c-2.271.552-6.284,1.842-9.509,2.878-1.572.506-3,.965-4.043,1.28Z" transform="translate(-671.021 -861.946)"/><path class="b" d="M687.422,924.023c2.584-.783,8.156-2.674,10.855-3.33a2.482,2.482,0,0,1,2.806,1.116c.967,1.811,1.782,5.676,2.508,9.25a2.133,2.133,0,0,1-1.76,2.407l-10.009,2.2a2.368,2.368,0,0,1-2.808-1.4l-2.8-8.177A1.665,1.665,0,0,1,687.422,924.023Z" transform="translate(-677.325 -868.351)"/><g class="g" transform="translate(34.402 26.783)"><path class="e" d="M773.373,861.006a.865.865,0,0,0-.6,1.309l1.982,3.771a1.6,1.6,0,0,0,1.7.77l114.858-27.677a1.171,1.171,0,0,0,.86-1.425l-.593-2.344a1.223,1.223,0,0,0-1.444-.885Z" transform="translate(-772.646 -834.496)"/></g><path class="e" d="M704.962,1022.144a3.442,3.442,0,0,1-3.328-2.226l-3.509-10.233a2.434,2.434,0,0,1,.149-1.912,2.911,2.911,0,0,1,1.753-1.431c1.036-.314,2.458-.771,4.022-1.274,3.413-1.1,7.28-2.34,9.593-2.9a3.68,3.68,0,0,1,4.169,1.691c1.211,2.27,2.2,6.846,3.2,11.735a3.269,3.269,0,0,1-2.653,3.7l-12.524,2.753A4.041,4.041,0,0,1,704.962,1022.144Zm-4.594-14.676a1.729,1.729,0,0,0-1.047.841,1.266,1.266,0,0,0-.084.995l3.509,10.233a2.373,2.373,0,0,0,2.831,1.364l12.524-2.754a2.093,2.093,0,0,0,1.753-2.321c-.975-4.8-1.945-9.285-3.081-11.415a2.536,2.536,0,0,0-2.853-1.1c-2.271.552-6.285,1.842-9.511,2.879-1.572.505-3,.964-4.041,1.28Z" transform="translate(-685.679 -925.695)"/><path class="b" d="M708.237,1014.553c2.584-.783,8.157-2.674,10.855-3.33a2.483,2.483,0,0,1,2.806,1.116c.966,1.811,1.782,5.676,2.508,9.25a2.134,2.134,0,0,1-1.76,2.407l-10.009,2.2a2.368,2.368,0,0,1-2.808-1.4l-2.8-8.177A1.664,1.664,0,0,1,708.237,1014.553Z" transform="translate(-691.982 -932.099)"/><g class="g" transform="translate(40.56 53.567)"><path class="e" d="M794.189,951.537a.865.865,0,0,0-.6,1.309l1.982,3.771a1.6,1.6,0,0,0,1.7.77L912.126,929.71a1.171,1.171,0,0,0,.86-1.425l-.593-2.344a1.224,1.224,0,0,0-1.445-.885Z" transform="translate(-793.461 -925.027)"/></g><path class="e" d="M725.777,1112.675a3.442,3.442,0,0,1-3.328-2.226l-3.509-10.233a2.433,2.433,0,0,1,.149-1.912,2.912,2.912,0,0,1,1.753-1.431c1.036-.314,2.458-.771,4.022-1.274,3.413-1.1,7.28-2.34,9.593-2.9a3.679,3.679,0,0,1,4.169,1.691c1.211,2.269,2.2,6.846,3.2,11.734a3.269,3.269,0,0,1-2.653,3.7l-12.524,2.753A4.049,4.049,0,0,1,725.777,1112.675ZM721.183,1098a1.726,1.726,0,0,0-1.047.841,1.265,1.265,0,0,0-.084.995l3.509,10.233a2.372,2.372,0,0,0,2.831,1.364l12.524-2.753a2.093,2.093,0,0,0,1.753-2.321c-.975-4.8-1.945-9.285-3.082-11.415a2.538,2.538,0,0,0-2.853-1.1c-2.271.552-6.285,1.842-9.511,2.879-1.572.505-3,.964-4.041,1.28Z" transform="translate(-700.336 -989.442)"/><path class="b" d="M729.053,1105.084c2.584-.783,8.157-2.674,10.855-3.33a2.483,2.483,0,0,1,2.806,1.116c.966,1.811,1.782,5.676,2.508,9.25a2.134,2.134,0,0,1-1.76,2.407l-10.009,2.2a2.368,2.368,0,0,1-2.808-1.4l-2.8-8.177A1.665,1.665,0,0,1,729.053,1105.084Z" transform="translate(-706.639 -995.846)"/><g class="g" transform="translate(46.718 80.35)"><path class="e" d="M815,1042.068a.865.865,0,0,0-.6,1.309l1.982,3.771a1.6,1.6,0,0,0,1.7.771l114.858-27.677a1.171,1.171,0,0,0,.86-1.425l-.593-2.344a1.223,1.223,0,0,0-1.444-.885Z" transform="translate(-814.277 -1015.558)"/></g></g></g><path class="d" d="M737.357,222.9c-7.343-2.948-12.826-1.6-16.438.438a7.93,7.93,0,0,0-3.621,9.387l5.864,17.854,20.289-2.807S751.757,228.687,737.357,222.9ZM732,239.629a5.087,5.087,0,1,1,3.818-6.1A5.087,5.087,0,0,1,732,239.629Z" transform="translate(-630.422 -221.198)"/><g transform="translate(89.372 2.192)"><path class="c" d="M730.164,247.782a.589.589,0,0,1-.559-.4l-.934-2.843a.588.588,0,1,1,1.118-.367l.934,2.843a.588.588,0,0,1-.559.772Zm-1.83-5.571a.589.589,0,0,1-.559-.405l-.709-2.159a7.665,7.665,0,0,1,3.495-9.056,15.35,15.35,0,0,1,7.243-1.982.588.588,0,1,1,.028,1.176,14.194,14.194,0,0,0-6.694,1.831,6.486,6.486,0,0,0-2.954,7.664l.709,2.159a.589.589,0,0,1-.559.772Z" transform="translate(-726.683 -228.608)"/></g><path class="d" d="M650.134,313.469l-2.108-9.17a5.741,5.741,0,0,1,4.5-6.923l63.718-12.37a5.584,5.584,0,0,1,6.421,3.907l2.554,8.689Z" transform="translate(-581.821 -266.056)"/><path class="c" d="M715.432,323.111a.588.588,0,0,1-.131-1.161l2.719-.625a.588.588,0,1,1,.264,1.146l-2.719.625A.6.6,0,0,1,715.432,323.111Z" transform="translate(-628.975 -291.692)"/><path class="c" d="M660.731,338.523a.588.588,0,0,1-.573-.457l-.853-3.709a5.429,5.429,0,0,1,4.075-6.508l10-2.3a.588.588,0,1,1,.264,1.146l-10,2.3a4.253,4.253,0,0,0-3.192,5.1l.853,3.71a.588.588,0,0,1-.441.705A.6.6,0,0,1,660.731,338.523Z" transform="translate(-589.769 -294.668)"/><path class="f" d="M574.648,324.492,685.2,299.071a8.384,8.384,0,0,1,9.61,4.926l.218.519a7.2,7.2,0,0,1-5.026,9.8L576.582,340.4a4.681,4.681,0,0,1-5.657-3.734L570,331.532A6.113,6.113,0,0,1,574.648,324.492Z" transform="translate(-526.915 -275.881)"/></g><g transform="translate(667.854 428.67)"><g transform="translate(87.051 1.367)"><path class="f" d="M1906.606,1190.43h0c-7.689-.007-13.915-8.328-13.905-18.584l.127-132.895,30.891.03-3.173,132.892C1920.537,1182.129,1914.3,1190.437,1906.606,1190.43Z" transform="translate(-1887.828 -1027.711)"/><path class="i" d="M1914.377,1186.085c-5.878-.006-10.654-6.389-10.646-14.228l.127-132.9,24.264.023-3.071,132.825v.067C1925.043,1179.716,1920.255,1186.09,1914.377,1186.085Z" transform="translate(-1895.594 -1027.718)"/><path class="f" d="M1912.106,1015.42l-31.3-.03c-2.529,0-4.577-2.739-4.573-6.113h0c0-3.246,1.909-5.923,4.339-6.1l31.307-2.215c2.622-.186,4.823,2.6,4.819,6.1l0,2.245C1916.688,1012.689,1914.635,1015.422,1912.106,1015.42Z" transform="translate(-1876.228 -1000.958)"/><path class="j" d="M1903.8,1243.946l-.069,72.251c-.007,7.84,4.768,14.223,10.646,14.228s10.666-6.368,10.673-14.208v-.067l1.669-72.182Z" transform="translate(-1895.594 -1172.059)"/></g><g transform="translate(134.694 1.413)"><path class="f" d="M2067.645,1190.584h0c-7.689-.008-13.915-8.328-13.905-18.584l.127-132.895,30.892.029-3.173,132.892C2081.576,1182.283,2075.335,1190.591,2067.645,1190.584Z" transform="translate(-2048.866 -1027.865)"/><path class="i" d="M2075.416,1186.239c-5.878-.006-10.654-6.389-10.646-14.228l.127-132.9,24.264.023-3.072,132.826v.067C2086.082,1179.87,2081.294,1186.244,2075.416,1186.239Z" transform="translate(-2056.633 -1027.872)"/><path class="f" d="M2073.144,1015.574l-31.3-.03c-2.529,0-4.577-2.739-4.574-6.113h0c0-3.246,1.909-5.923,4.34-6.1l31.306-2.215c2.622-.186,4.823,2.6,4.82,6.1l0,2.245C2077.726,1012.843,2075.673,1015.576,2073.144,1015.574Z" transform="translate(-2037.266 -1001.112)"/><path class="k" d="M2064.839,1244.1l-.069,72.251c-.008,7.839,4.768,14.223,10.646,14.228s10.666-6.368,10.673-14.208v-.067l1.669-72.183Z" transform="translate(-2056.633 -1172.213)"/></g><g transform="translate(51.373 70.473)"><path class="b" d="M1938.5,1240.339c-18.2-5.022-125.968-29.346-182.868,80.313,0,0,63.953,36.559,183.2-77.321C1939.878,1242.335,1939.689,1240.667,1938.5,1240.339Z" transform="translate(-1755.632 -1234.543)"/><path class="a" d="M1948.674,1282.522c-12.921,2.357-25.781,5.128-38.57,8.146-12.786,3.039-25.507,6.35-38.1,10.071q-9.454,2.77-18.794,5.9-9.345,3.1-18.521,6.657c-3.066,1.164-6.089,2.431-9.12,3.676-3,1.31-6.016,2.6-8.97,4.005a186.276,186.276,0,0,0-17.325,9.156l-.006,0a1.176,1.176,0,1,1-1.218-2.013l.009-.005a188.359,188.359,0,0,1,17.623-9.122c2.994-1.4,6.042-2.667,9.078-3.96,3.063-1.227,6.117-2.476,9.21-3.62q9.252-3.5,18.664-6.529,9.4-3.053,18.9-5.752c12.663-3.622,25.437-6.83,38.269-9.764,12.839-2.913,25.727-5.575,38.7-7.827a.5.5,0,0,1,.175.981Z" transform="translate(-1785.097 -1267.63)"/></g><g transform="translate(51.369 52.974)"><path class="c" d="M1834.7,1175.434c-11.71,3.511-79.192,27.268-72.651,107,0,0,47.661-1.964,73.864-105.474C1836.147,1176.055,1835.469,1175.2,1834.7,1175.434Z" transform="translate(-1759.836 -1175.396)"/><path class="b" d="M1823.154,1213.2c-6.257,5.751-12.343,11.712-18.3,17.781s-11.77,12.286-17.379,18.672q-4.218,4.78-8.249,9.714t-7.834,10.033c-2.532,3.4-4.965,6.873-7.239,10.437a120.185,120.185,0,0,0-6.3,10.963l0,.006a1.176,1.176,0,1,1-2.1-1.053l.007-.014a122.438,122.438,0,0,1,6.573-11.093c2.355-3.585,4.86-7.06,7.46-10.456s5.269-6.736,8.023-10,5.553-6.49,8.419-9.651c5.718-6.337,11.637-12.484,17.682-18.5s12.223-11.889,18.584-17.582a.5.5,0,0,1,.67.738Z" transform="translate(-1755.618 -1201.407)"/></g><g transform="translate(42.451 0)"><path class="f" d="M1755.851,1185.809h0c-7.689-.007-13.915-8.328-13.9-18.584l.127-132.895,30.892.03-3.173,132.892C1769.782,1177.508,1763.541,1185.816,1755.851,1185.809Z" transform="translate(-1737.072 -1023.09)"/><path class="i" d="M1763.622,1181.464c-5.878-.006-10.654-6.389-10.646-14.228l.127-132.895,24.264.023-3.071,132.825v.067C1774.288,1175.1,1769.5,1181.47,1763.622,1181.464Z" transform="translate(-1744.839 -1023.098)"/><path class="f" d="M1761.35,1010.8l-31.3-.03c-2.529,0-4.577-2.739-4.573-6.113h0c0-3.246,1.909-5.923,4.339-6.1l31.307-2.215c2.622-.186,4.823,2.6,4.819,6.1l0,2.245C1765.932,1008.069,1763.879,1010.8,1761.35,1010.8Z" transform="translate(-1725.472 -996.337)"/><path class="l" d="M1753.045,1239.325l-.069,72.251c-.007,7.84,4.768,14.223,10.646,14.228s10.666-6.368,10.673-14.208v-.067l1.669-72.182Z" transform="translate(-1744.839 -1167.438)"/></g><g transform="translate(0 1.284)"><path class="f" d="M1612.363,1190.148h0c-7.69-.007-13.915-8.328-13.905-18.584l.127-132.9,30.892.03-3.173,132.892C1626.294,1181.847,1620.052,1190.155,1612.363,1190.148Z" transform="translate(-1593.584 -1027.429)"/><path class="i" d="M1620.133,1185.8c-5.878-.006-10.654-6.388-10.646-14.228l.127-132.9,24.264.023-3.071,132.826v.066C1630.8,1179.435,1626.011,1185.809,1620.133,1185.8Z" transform="translate(-1601.35 -1027.437)"/><path class="f" d="M1617.862,1015.139l-31.3-.03c-2.529,0-4.577-2.739-4.574-6.113h0c0-3.246,1.909-5.923,4.34-6.1l31.307-2.215c2.622-.185,4.823,2.6,4.819,6.1l0,2.245C1622.444,1012.408,1620.391,1015.141,1617.862,1015.139Z" transform="translate(-1581.984 -1000.677)"/><path class="m" d="M1609.557,1243.664l-.069,72.251c-.007,7.84,4.768,14.223,10.646,14.228s10.666-6.368,10.673-14.208v-.067l1.669-72.182Z" transform="translate(-1601.35 -1171.777)"/></g></g><g transform="translate(297.864 486.915)"><g transform="translate(0 43.615)"><path class="b" d="M353.449,1416.262H567.617V1373.4H353.449C358.033,1373.4,358.033,1416.262,353.449,1416.262Z" transform="translate(-346.918 -1363.705)"/><path class="n" d="M552.073,1382.467V1362.85c0-6.916-4.232-12.522-9.453-12.522H331.67a.3.3,0,0,1-.3-.3v-9.1a.3.3,0,0,1,.3-.3H556.383c5.108,0,13.219,8.031,13.219,17.939v27.4c0,9.341-7.874,16.913-12.69,16.913H331.67a.3.3,0,0,1-.3-.3v-9.1a.3.3,0,0,1,.3-.3h212.3C548.447,1393.194,552.073,1388.392,552.073,1382.467Z" transform="translate(-331.374 -1340.636)"/><path class="o" d="M577.929,1402.314H377.117a.588.588,0,0,1,0-1.176H577.929a.588.588,0,0,1,0,1.176Z" transform="translate(-363.17 -1383.239)"/><path class="p" d="M577.929,1423.821H377.117a.588.588,0,0,1,0-1.176H577.929a.588.588,0,0,1,0,1.176Z" transform="translate(-363.17 -1398.383)"/><path class="a" d="M577.929,1445.327H377.117a.588.588,0,0,1,0-1.176H577.929a.588.588,0,1,1,0,1.176Z" transform="translate(-363.17 -1413.526)"/><path class="a" d="M577.929,1466.833H377.117a.588.588,0,0,1,0-1.177H577.929a.588.588,0,0,1,0,1.177Z" transform="translate(-363.17 -1428.67)"/><path class="a" d="M577.929,1488.34H377.117a.588.588,0,1,1,0-1.176H577.929a.588.588,0,1,1,0,1.176Z" transform="translate(-363.17 -1443.814)"/></g><g transform="translate(26.797 0)"><rect class="f" width="172.993" height="43.478" rx="21.391"/><rect class="c" width="20.323" height="33.484" transform="translate(19.551 4.997)"/><rect class="c" width="7.625" height="33.484" transform="translate(42.863 4.997)"/></g></g><g transform="translate(354.42 408.93)"><path class="q" d="M684.165,1169.848c-.049-.019-26.331-46.045-29.882-50.376a2.753,2.753,0,0,0-2.458-.988l-7.336.874L635.871,1138l14.357-8.362c-1.421,9.825,17.023,24.427,23.349,29.755a1.453,1.453,0,0,1,.115,2.116l-2.525,2.644a29,29,0,0,0,14.33,8.149Z" transform="translate(-602.342 -1062.594)"/><path class="r" d="M754.744,1268.082a3.72,3.72,0,0,0-2.158,1.956,1.642,1.642,0,0,0,.618,1.893c2.654,1.9,11.408,8.04,15.448,9.242a.457.457,0,0,0,.572-.538,14.549,14.549,0,0,0-3.038-5.556l.194.392a.561.561,0,0,1-.777.74C762.9,1274.686,757.4,1271.347,754.744,1268.082Z" transform="translate(-684.459 -1167.947)"/><path class="s" d="M667.281,1193.533c-.044-.028-3.987-9.529-4.031-9.557a167.292,167.292,0,0,0-15.038-45.825,2.754,2.754,0,0,0-2.207-1.465l-7.361-.628-12.213,16.514,15.752-5.283c-3.38,9.335,11.727,27.367,16.844,33.865a1.453,1.453,0,0,1-.316,2.1l-3.008,2.078a29,29,0,0,0,12.384,10.88Z" transform="translate(-595.695 -1074.982)"/><path class="r" d="M724.654,1298.87a3.719,3.719,0,0,0-2.509,1.479,1.642,1.642,0,0,0,.222,1.978c2.214,2.4,9.545,10.182,13.258,12.177a.457.457,0,0,0,.669-.411,14.553,14.553,0,0,0-1.851-6.056l.111.423a.562.562,0,0,1-.911.568C731.305,1306.988,726.591,1302.6,724.654,1298.87Z" transform="translate(-662.927 -1189.627)"/><g transform="translate(1.213 57.306)"><path class="t" d="M533.92,1123.607s-6.659,9.9-7.205,14.422,1.841,6.08,8.811,6.656c20.74,1.715,30.965-4.5,30.965-4.5,1.419-9.046,2.428-11.348,14.278-16.266,0,0-14.987,1.19-18,.02S533.92,1123.607,533.92,1123.607Z" transform="translate(-526.64 -1123.316)"/></g><g transform="translate(0)"><path class="u" d="M564.691,931.724s-4.638-5.488-9.569,1.245c-.893,1.219-4.323.214-5.58,2.766a3.241,3.241,0,0,1-3.5,1.8c-3.6-.664-9.479-.72-12.382,4.918-2.217,4.3-.505,6.822,1.71,8.258a3.632,3.632,0,0,1,1.224,4.867c-.944,1.6-1.121,3.773,1.316,6.385,5.461,5.853,16.272-3.714,16.272-3.714l8.583-20.283Z" transform="translate(-529.645 -929.615)"/><path class="v" d="M553.2,1034.42a151.992,151.992,0,0,0,11.572-12.274,10.377,10.377,0,0,0,1.757-9.338c-1.743-5.871-4.84-11.952-5.122-12.9-.433-1.45-9.128-1.39-9.128-1.39s-17.109,11.1-23.831,29.914l7.549,2.35a88.245,88.245,0,0,1,8.881-12.26s-7.638,10.09-7.907,14.22Z" transform="translate(-526.702 -978.133)"/><path class="w" d="M563.816,1108.533l-5.827-6.34-6.729,1.812s-7.845,1.216-12.335,0l-4.49-1.215-10.146-3.159-1.593,4.5a2.712,2.712,0,0,0,.991,3.116,17.88,17.88,0,0,0,2.563,1.6c1.336.584,30.781.185,30.781.185Z" transform="translate(-522.54 -1049.332)"/><path class="x" d="M615.294,961.18l-5.844,10.867c.386,2.372,6.36,2.439,7.283,1.022a1.4,1.4,0,0,0,.183-.479l3.5-7.261c.15-.708-1.791-3.094-2.43-3.434l-2.323-1.236C614.765,960.183,618.5,960.146,615.294,961.18Z" transform="translate(-583.738 -951.249)"/><g transform="translate(28.743 0.318)"><path class="y" d="M640.481,948.266s.659,3.671-2.226,8.339-5.759,4.457-7.219,2.792a10.259,10.259,0,0,1-2.413-9.093C629.419,945.649,639.484,943.584,640.481,948.266Z" transform="translate(-625.841 -941.203)"/><path class="z" d="M625.969,940.3s4.672-6.137,8.26-.787l-.061,1.848s4.665-.218,4.159-4.518-4.314-7.237-9.594-5.768-8.365,3.142-8.961,6.808,2.4,3.067,2.4,3.067,1.143-2.529,2.524-2.7.882,1.828.882,1.828Z" transform="translate(-619.694 -930.691)"/><path class="aa" d="M632.943,953.4s2.42-3.141.217-3.792-2.121,3.077-1.977,4.465Z" transform="translate(-627.74 -943.961)"/></g></g><g transform="translate(20.85 37.377)"><path class="ab" d="M594.154,1132.423l.062,0,26.8-.029a1.2,1.2,0,1,0,0-2.4l-26.8.029a1.2,1.2,0,0,0-.059,2.4Z" transform="translate(-593.015 -1108.091)"/><path class="ac" d="M682.257,1055.953H659.938a4.254,4.254,0,0,0-3.847,2.44l-10.318,21.879h27.737a2.586,2.586,0,0,0,2.4-1.635l8-20.246A1.782,1.782,0,0,0,682.257,1055.953Z" transform="translate(-630.164 -1055.953)"/><path class="f" d="M715.432,1088.551c-.484,1.5-.126,2.962.8,3.26s2.066-.679,2.55-2.182.127-2.962-.8-3.259S715.916,1087.048,715.432,1088.551Z" transform="translate(-679.063 -1077.333)"/></g></g><g transform="translate(486.933 251.003)"><path class="d" d="M1167.229,698.838a48.555,48.555,0,0,0-48.555-48.555H1019a48.556,48.556,0,0,0-48.555,48.555V889.625a27.106,27.106,0,0,0,27.106,27.106h142.568a27.106,27.106,0,0,0,27.106-27.106Z" transform="translate(-970.449 -574.995)"/><path class="ad" d="M1204.322,696.749a41.4,41.4,0,0,0,41.157-46.466h-82.313a41.4,41.4,0,0,0,41.156,46.466Z" transform="translate(-1105.932 -574.995)"/><g transform="translate(81.682)"><path class="c" d="M1246.543,406.072l.239,108.077a41.509,41.509,0,0,0,32.938,0l-.239-108.077a10.27,10.27,0,0,0-10.271-10.27h-12.4A10.27,10.27,0,0,0,1246.543,406.072Z" transform="translate(-1246.543 -395.802)"/></g><path class="f" d="M1267.358,395.8h-12.4a10.27,10.27,0,0,0-10.271,10.27v50.312h32.938V406.072A10.27,10.27,0,0,0,1267.358,395.8Z" transform="translate(-1163.556 -395.802)"/><path class="ae" d="M48.006,0H106.1A48.006,48.006,0,0,1,154.1,48.006v53.977a48,48,0,0,1-48,48H48.006A48.006,48.006,0,0,1,0,101.982V48.006A48.006,48.006,0,0,1,48.006,0Z" transform="translate(21.338 128.812)"/><rect class="af" width="142.341" height="138.224" rx="28.124" transform="translate(27.22 134.694)"/><path class="ag" d="M1286.963,461.892c0,10.72-4.345,16.469-9.705,16.469s-9.7-5.749-9.7-16.469,4.345-22.351,9.7-22.351S1286.963,451.172,1286.963,461.892Z" transform="translate(-1179.655 -426.601)"/><g transform="translate(45.595 161.457)"><ellipse class="ah" cx="2.987" cy="16.474" rx="2.987" ry="16.474" transform="translate(0 6.744)"/><ellipse class="ai" cx="16.474" cy="2.987" rx="16.474" ry="2.987" transform="translate(5.973)"/><ellipse class="aj" cx="2.987" cy="16.474" rx="2.987" ry="16.474" transform="translate(0 45.665)"/><ellipse class="ak" cx="2.987" cy="16.474" rx="2.987" ry="16.474" transform="translate(38.922 6.744)"/><ellipse class="al" cx="2.987" cy="16.474" rx="2.987" ry="16.474" transform="translate(38.922 45.665)"/><ellipse class="am" cx="16.474" cy="2.987" rx="16.474" ry="2.987" transform="translate(5.973 38.922)"/><ellipse class="an" cx="16.474" cy="2.987" rx="16.474" ry="2.987" transform="translate(5.973 77.843)"/><g transform="translate(60.695)"><ellipse class="ao" cx="2.987" cy="16.474" rx="2.987" ry="16.474" transform="translate(0 6.744)"/><ellipse class="ap" cx="16.474" cy="2.987" rx="16.474" ry="2.987" transform="translate(5.973)"/><ellipse class="aq" cx="2.987" cy="16.474" rx="2.987" ry="16.474" transform="translate(38.922 45.665)"/><ellipse class="ar" cx="16.474" cy="2.987" rx="16.474" ry="2.987" transform="translate(5.973 38.922)"/><ellipse class="as" cx="16.474" cy="2.987" rx="16.474" ry="2.987" transform="translate(5.973 77.843)"/></g><ellipse class="at" cx="2.505" cy="2.505" rx="2.505" ry="2.505" transform="translate(50.868 78.807)"/></g><g transform="translate(44.958 286.152)"><path class="f" d="M1172.184,1384.865a21.836,21.836,0,0,1-21.836,21.837c-12.06,0-27.936-9.777-27.936-21.837s15.876-21.836,27.936-21.836A21.836,21.836,0,0,1,1172.184,1384.865Z" transform="translate(-1122.412 -1363.029)"/><path class="au" d="M1188.037,1419.851a3.247,3.247,0,0,1-4.7,2.9l-13.4-6.7a3.247,3.247,0,0,1,0-5.808l13.4-6.7a3.247,3.247,0,0,1,4.7,2.9Z" transform="translate(-1154.612 -1391.313)"/><path class="f" d="M1315.389,1384.865a21.836,21.836,0,0,0,21.836,21.837c12.06,0,27.936-9.777,27.936-21.837s-15.876-21.836-27.936-21.836A21.836,21.836,0,0,0,1315.389,1384.865Z" transform="translate(-1258.297 -1363.029)"/><path class="av" d="M1370.643,1419.851a3.247,3.247,0,0,0,4.7,2.9l13.4-6.7a3.247,3.247,0,0,0,0-5.808l-13.4-6.7a3.246,3.246,0,0,0-4.7,2.9Z" transform="translate(-1297.204 -1391.313)"/></g><path class="c" d="M1031.546,1297.118h-12.505a16.923,16.923,0,0,1-16.9-16.9V1206.3a1.176,1.176,0,1,1,2.353,0v73.912a14.567,14.567,0,0,0,14.551,14.551h12.505a1.176,1.176,0,1,1,0,2.353Z" transform="translate(-992.762 -965.689)"/><path class="c" d="M1003.313,1125.8a1.176,1.176,0,0,1-1.176-1.176v-7.94a1.176,1.176,0,0,1,2.353,0v7.94A1.177,1.177,0,0,1,1003.313,1125.8Z" transform="translate(-992.762 -902.583)"/></g><g transform="translate(596.839 190.925)"><path class="aw" d="M1424.045,271.544a41.05,41.05,0,0,1-82.1,0c0-17.953,25.74-59.7,36.455-76.306a5.468,5.468,0,0,1,9.19,0C1398.3,211.841,1424.045,253.591,1424.045,271.544Z" transform="translate(-1341.944 -192.734)"/><path class="ax" d="M1398.442,460.108a1.477,1.477,0,0,1-.265-.024,33.13,33.13,0,0,1-24.234-46.3,1.471,1.471,0,0,1,2.678,1.217A30.188,30.188,0,0,0,1398.7,457.19a1.471,1.471,0,0,1-.261,2.917Z" transform="translate(-1362.44 -347.782)"/></g><g transform="translate(629.183 246.591)"><g transform="translate(0 0)"><g transform="translate(96.085 28.188)"><g transform="translate(39.263 142.612)"><path class="ay" d="M1909.308,996.865c3.307.286,9.046.75,13.57.949a13.07,13.07,0,0,0,5.187-.508c0,.1,0,.2-.008.287a.936.936,0,0,1-.889.884,158.968,158.968,0,0,1-17.769.018.666.666,0,0,1-.543-1A5.461,5.461,0,0,1,1909.308,996.865Z" transform="translate(-1908.763 -985.43)"/><path class="az" d="M1924.175,981.922c-4.524-.2-10.263-.664-13.57-.949,3.251-3.989,13.57-6.677,13.57-6.677h2.914a12.224,12.224,0,0,1,2.273,7.119A13.068,13.068,0,0,1,1924.175,981.922Z" transform="translate(-1910.06 -969.537)"/><path class="ba" d="M1955.043,958.213l-.273,5.4a1.233,1.233,0,0,1-1.053,1.159,4.792,4.792,0,0,1-2.189-.181,1.459,1.459,0,0,1-.98-1.121l-.943-5.254Z" transform="translate(-1937.523 -958.213)"/></g><g transform="translate(84.852 137.568)"><g transform="translate(1.284 5.009)"><path class="bb" d="M2084.064,995.792a2.618,2.618,0,0,0,2.355-1.741l.005.021a1.864,1.864,0,0,1-1.256,2.125,8.205,8.205,0,0,1-3.478.544,3.457,3.457,0,0,1-2.607-1.2l-.008-.011C2080.156,996.063,2081.673,996.126,2084.064,995.792Z" transform="translate(-2075.562 -983.413)"/><path class="bc" d="M2068.939,958.095h2.4c3.661-.075,5.96,7.647,6.712,10.637a2.618,2.618,0,0,1-2.355,1.741c-2.392.333-3.908.27-4.989-.264-1.978-2.6-2.958-6.415-3.43-8.639A3.033,3.033,0,0,1,2068.939,958.095Z" transform="translate(-2067.198 -958.094)"/></g><path class="bd" d="M2067.977,941.164l1.335,5.308a1.442,1.442,0,0,1-.75,1.633,5.116,5.116,0,0,1-2.764.669,1.2,1.2,0,0,1-.982-.8l-1.96-5.585Z" transform="translate(-2062.857 -941.164)"/></g><path class="be" d="M1963.43,766.716c-1.66,1.473-7.062,1.667-7.062,1.667-19.455-46.694-27.413-53.328-27.413-53.328,2.809,17.625.453,56.643.453,56.643-3.211,1.417-7.35,0-7.35,0a300.739,300.739,0,0,0-9.935-73.854c13.149-.3,20.142-4.8,22.425-6.6C1945.51,708.914,1963.43,766.716,1963.43,766.716Z" transform="translate(-1871.867 -627.613)"/><path class="bf" d="M1889.216,508.975c2.489,12.415,1.6,34.634,1.011,44.769-.165,2.848,7.611,11.821,13.533,29.7a.919.919,0,0,1-.341,1.188c-2.691,1.383-18.121,2.513-28.687,3.046a1.457,1.457,0,0,1-1.516-1.126c-5.72-29.993-19.98-65.27-20.729-65.012C1862.537,505.488,1889.216,508.975,1889.216,508.975Z" transform="translate(-1829.873 -499.044)"/><g transform="translate(56.563 9.931)"><path class="bg" d="M2006.358,628.114c-.8,5.783-3.161,12.092-7.887,18.792l-1.8-1.464a55.467,55.467,0,0,0,.895-17.96A21.5,21.5,0,0,1,2006.358,628.114Z" transform="translate(-1987.966 -592.484)"/><path class="bh" d="M1967.239,525.055l2.78-15.318s18.574,14.2,15.612,35.629a21.5,21.5,0,0,0-8.788-.632C1975.993,537.856,1973.457,530.39,1967.239,525.055Z" transform="translate(-1967.239 -509.737)"/></g><g transform="translate(0 22.494)"><path class="bi" d="M1836.291,552.2c3.421,2.61,5.443,8.66,7.169,15.441-1.159,9.322-6.167,13.353-11.566,14.9a32.765,32.765,0,0,0-2.408-10.055C1836.385,565.36,1836.291,552.2,1836.291,552.2Z" transform="translate(-1813.677 -552.199)"/><path class="bj" d="M1791.858,620.761a32.767,32.767,0,0,1,2.408,10.055c-14.406,5.589-18.217-5.25-18.217-5.25l2.662-.469C1784.724,625.73,1788.924,623.791,1791.858,620.761Z" transform="translate(-1776.049 -600.477)"/></g><path class="bk" d="M1874.814,479.6l3.461,12.724a2.476,2.476,0,0,0,3.311,1.647,50.3,50.3,0,0,0,4.989-2.279,3.336,3.336,0,0,0,1.177-4.794l-7.2-10.73Z" transform="translate(-1845.595 -476.168)"/></g><path class="d" d="M1748.416,608.222l88.69,32.28a6.791,6.791,0,0,1,3.859,9.193l-.269.591a6.313,6.313,0,0,1-8.4,3.116l-86.117-39.838Z" transform="translate(-1658.933 -540.967)"/><g class="bl" transform="translate(4.935 4.846)"><ellipse class="b" cx="43.782" cy="42.992" rx="43.782" ry="42.992"/></g><path class="d" d="M1451.271,428.729c0,26.421,21.811,47.838,48.717,47.838s48.717-21.418,48.717-47.838-21.811-47.838-48.717-47.838S1451.271,402.309,1451.271,428.729Zm7.156,0c0-22.539,18.607-40.811,41.561-40.811s41.561,18.272,41.561,40.811-18.608,40.811-41.561,40.811S1458.427,451.268,1458.427,428.729Z" transform="translate(-1451.271 -380.891)"/><g transform="translate(24.06 2.995)"><path class="c" d="M1602.267,441.749l-.037,0a.294.294,0,0,1-.255-.329c.143-1.117.243-2.254.3-3.382a.3.3,0,0,1,.308-.28.3.3,0,0,1,.28.308c-.057,1.143-.158,2.3-.3,3.428A.294.294,0,0,1,1602.267,441.749Zm-.335-13.376a.294.294,0,0,1-.289-.242,43.393,43.393,0,0,0-2.59-8.867h0a44.91,44.91,0,0,0-41.8-27.662,45.535,45.535,0,0,0-24.207,6.917.294.294,0,1,1-.312-.5,46.124,46.124,0,0,1,24.519-7.007,45.5,45.5,0,0,1,42.342,28.026h0a43.994,43.994,0,0,1,2.625,8.987.3.3,0,0,1-.238.342A.315.315,0,0,1,1601.932,428.373Z" transform="translate(-1532.597 -391.013)"/></g><g transform="translate(114.136 15.117)"><path class="bm" d="M1849.218,450.23c-.031.219,2.887,14.52,2.887,14.52l8.13-1.84-.752-13.966S1849.746,446.572,1849.218,450.23Z" transform="translate(-1845.622 -443.396)"/><path class="bn" d="M1849.1,440.65l.972,7.321a1.016,1.016,0,0,1,0,.28c-.082.574-.509,2.527-2.481,1.969-1.789-.507-3.43-.943-4.563-.6a1.03,1.03,0,0,0-.709,1.192,44.545,44.545,0,0,0,1.872,6.664,1.028,1.028,0,0,0,1.249.608,33.234,33.234,0,0,0,7.167-2.932,1.031,1.031,0,0,0,.5-.928c-.078-1.848-.294-7.466-.112-9.041.171-1.478,1.984-2.364,2.773-2.681a1.015,1.015,0,0,0,.565-.566,2.674,2.674,0,0,0-1.8-3.9,1.033,1.033,0,0,1-.654-1.335,2.679,2.679,0,0,0-1.5-3.7,3.78,3.78,0,0,0-4.509,1.087,1.032,1.032,0,0,1-1.315.155.816.816,0,0,0-.928.032,1.016,1.016,0,0,1-1.439-.436,3.081,3.081,0,0,0-3.579-1.783c-3.643.624-4.056,4.661-3.095,7.027s4.873,1.465,6.835.272c1.492-.907,3.427.044,4.269.551A1.023,1.023,0,0,1,1849.1,440.65Z" transform="translate(-1837.063 -431.989)"/><path class="bo" d="M1890.45,472.055s-1.5-4.194.041-5.221,3.818-.494,3.316,2.545C1893.183,473.157,1890.45,472.055,1890.45,472.055Z" transform="translate(-1874.195 -456.188)"/></g><path class="bp" d="M1970.581,686.25l-8.385-.683-3.631,3.347s.859,1.187,3.545.5a38.464,38.464,0,0,1,6.365-.85s3.708,1.672,3.753-1.456Z" transform="translate(-1808.483 -595.429)"/><path class="bq" d="M1766.2,628.6c-.725.567-3.209-.616-4.729-1.434a1.749,1.749,0,0,1-.845-2.066c.366-1.154.975-2.643,1.727-2.83C1763.594,621.956,1769.185,626.264,1766.2,628.6Z" transform="translate(-1669.044 -550.846)"/><path class="c" d="M2023.657,723.4a.294.294,0,0,1-.1-.572c2.517-.87,3.835-2.28,3.918-4.191a4.655,4.655,0,0,0-3.046-4.478l-10.649-4.153a.294.294,0,1,1,.214-.548l10.649,4.153a5.242,5.242,0,0,1,3.419,5.051c-.065,1.5-.866,3.529-4.313,4.721A.3.3,0,0,1,2023.657,723.4Z" transform="translate(-1847.234 -612.238)"/><path class="c" d="M1999.515,704.42a.3.3,0,0,1-.107-.02l-1.38-.538a.294.294,0,0,1,.214-.548l1.38.538a.294.294,0,0,1-.107.568Z" transform="translate(-1836.139 -607.911)"/></g></g></g></svg>